<svg id="Calque_1" data-name="Calque 1" xmlns="http://www.w3.org/2000/svg" xmlns:xlink="http://www.w3.org/1999/xlink" viewBox="0 0 4861.8 3431.87"><defs><style>.cls-1{fill:url(#Dégradé_sans_nom_15);}.cls-2{fill:none;stroke:#fff;stroke-miterlimit:10;}</style><linearGradient id="Dégradé_sans_nom_15" x1="349.66" y1="-476.85" x2="4147.72" y2="-476.85" gradientTransform="translate(361.28 2191.67)" gradientUnits="userSpaceOnUse"><stop offset="0"/><stop offset="1" stop-color="#111110"/></linearGradient></defs><rect class="cls-1" x="710.94" y="-716.08" width="3431.87" height="4861.8" transform="translate(4145.71 -710.94) rotate(90)"/><polyline class="cls-2" points="2827.55 1659.68 2827.55 1965.07 3073.43 2213.56 2949.83 2345 2949.83 2502.59 3061 2615.72 3062.31 2973.42 3228.41 3140.17"/><path class="cls-2" d="M3372.05,909.6,3271.6,1009.77,2729.26,1550.6l1.79,270.37-125.33,127.12,5.37,603.4,173.68,171.89,837.95,3.58s310.85-299.91,312-299.91H3643.14V2225.49h594.65s113,131.34,113,118.55" transform="translate(4.02 1.12)"/><polyline class="cls-2" points="3386.67 1021.59 3436.06 1067.76 3438.2 1567.02 3239.57 1771.02 3239.57 2171.5 3063.49 2349.74 3063.49 2486.09 2789.7 2762.03 2634.01 2760.95"/><polyline class="cls-2" points="3609.88 937.6 3531.2 1015.17 3530.09 1309.95 3476.9 1363.14 3290.72 1360.92 3167.71 1481.72 2988.19 1479.5 2988.19 1360.92 2758.79 1359.82 2502.12 1103.14"/><polyline class="cls-2" points="3936.33 2015.44 3937.51 1883.22 3720.3 1666 2662.53 1668.36"/><polyline class="cls-2" points="3829.53 2171.41 3599.99 2169.77 3349.13 1918.91 3191.73 1917.27 3192.11 2015.42 2921.46 2293.75 2615.78 2293.75"/><path class="cls-2" d="M3226.17,2933" transform="translate(4.02 1.12)"/><polyline class="cls-2" points="4443.94 2811.82 4214.4 2810.18 3963.54 2559.32 3806.14 2557.68"/><polyline class="cls-2" points="3683.81 2646.81 3108.04 2071.05 3107.09 1865.14 3016.53 1863.24 2641.9 2235.01 2503.68 2236.91"/><polyline class="cls-2" points="3490.38 3092.37 3332.16 2928.66 2534.49 2928.66"/><polyline class="cls-2" points="2563.83 2255.47 2777.15 2463.54 3229.02 2462.49 3423.42 2652.7 2920.92 3155.2"/><line class="cls-2" x1="2697.04" y1="2753.72" x2="2962.96" y2="2490.06"/><circle class="cls-2" cx="3949.37" cy="1998.88" r="39.95"/><circle class="cls-2" cx="3594.45" cy="1584.5" r="62.25"/><circle class="cls-2" cx="3038.85" cy="1058.62" r="39.95"/><circle class="cls-2" cx="2995.31" cy="1750.58" r="42.89"/><circle class="cls-2" cx="2399.2" cy="2175.15" r="38.6"/><polyline class="cls-2" points="2626.49 1866.38 2382.05 1643.37 2382.05 1120.17"/><polyline class="cls-2" points="3239.75 935.76 2780.88 935.76 2613.63 1103.02 2445.74 935.13"/><polyline class="cls-2" points="4427.68 1596.2 4003.11 1596.2 3664.32 1934.99 3349.13 1934.99"/><polyline class="cls-2" points="3489.97 894.75 3066.61 894.75 2826.37 654.5"/><polyline class="cls-2" points="3769.78 1165.3 3578.87 1356.21 3773.62 1525.55 4040.33 1525.55 4040.33 1203.8 3874.04 1037.51 3624.74 1037.51"/><polyline class="cls-2" points="3892.16 2173.28 4036.1 2338.39 4383.25 2338.39"/><polyline class="cls-2" points="4108.07 2135.18 4230.84 2012.41 4459.45 2012.41 4459.45 1644.09 4768.04 1952.68"/><line class="cls-2" x1="3104.98" y1="879.98" x2="3104.98" y2="596.4"/><line class="cls-2" x1="2053.36" y1="2546.03" x2="2565.39" y2="2546.03"/><polyline class="cls-2" points="3325.55 2770.53 3325.55 3081.68 3325.55 3129.04 3325.55 3184.09 3687.9 3184.09 3920.28 2951.71 3920.28 2784.08 3920.28 2428.17"/><line class="cls-2" x1="3664.27" y1="3026.54" x2="3664.27" y2="2703.58"/><polyline class="cls-2" points="4566.22 1415.64 4566.22 1813.44 4129.03 1813.44 4434.67 1507.8 4660.5 1507.8"/><polyline class="cls-2" points="4239.31 1265.97 3880.89 907.55 3624.88 907.55"/><polyline class="cls-2" points="3392.5 816.97 3624.88 584.59 3624.88 336.45 3506.72 336.45 3316.08 138.02"/><line class="cls-2" x1="3766.67" y1="1368.38" x2="3483.09" y2="1092.67"/><line class="cls-2" x1="3506.72" y1="1774.06" x2="3329.48" y2="1518.04"/><polyline class="cls-2" points="4089.64 1982.8 4262.94 2152.16 4455.94 2152.16 3951.54 1647.77"/><polyline class="cls-2" points="3746.98 2963.53 3932.1 3203.78 3932.1 3412.53 3593.37 3412.53"/><path class="cls-2" d="M3766.59,2572.48H3093.08l-484.45,484.45s-383.31-357.1-372.12-368.28V1783.77l270.17-270.18h927.21" transform="translate(4.02 1.12)"/><line class="cls-2" x1="3332.16" y1="2928.66" x2="3795.88" y2="2464.95"/><path class="cls-2" d="M3348.15,3127.92l567.48-567.47s272.08.53,280.27-7.66h283.59l193,157.54,137.85-59.08" transform="translate(4.02 1.12)"/><line class="cls-2" x1="3512.81" y1="3184.34" x2="3916.67" y2="2780.48"/><line class="cls-2" x1="3599.99" y1="2169.77" x2="3268.08" y2="2501.68"/><line class="cls-2" x1="4219.12" y1="2800.72" x2="3887.22" y2="3132.63"/><polyline class="cls-2" points="2608.89 1984.85 2240.44 2416.11 2039.47 2416.11 2039.47 2190.01"/><polyline class="cls-2" points="3810.55 2223.5 3530.03 1942.98 3530.03 1666.64"/><polyline class="cls-2" points="4540.76 2906.45 4260.23 2625.92 4260.23 2349.58"/><polyline class="cls-2" points="3525.84 1704.32 3890.1 1704.32 4082.7 1896.92 4082.7 2215.13"/><polyline class="cls-2" points="3923.6 2470.53 4539.08 2470.53 4262.94 2152.16"/><line class="cls-2" x1="3969.66" y1="1796.43" x2="4285.77" y2="1480.32"/><polyline class="cls-2" points="4539.08 2470.53 4735.87 2315.62 4735.87 2072.77 4371.6 2072.77"/><line class="cls-2" x1="4660.5" y1="2231.88" x2="4128.76" y2="1700.13"/><line class="cls-2" x1="3680.76" y1="2026.72" x2="4101.54" y2="1605.93"/><line class="cls-2" x1="3316.49" y1="2240.25" x2="3714.25" y2="1842.49"/><line class="cls-2" x1="3542.59" y1="2407.73" x2="3892.2" y2="2058.12"/><polyline class="cls-2" points="4530.24 2731.61 4180.63 3081.22 4289.95 3190.54 4545.09 3190.54 4545.09 3413.59"/><polyline class="cls-2" points="4463.72 2206.76 4706.56 2449.6 4706.56 2972.97 4799.02 3048.2"/><line class="cls-2" x1="4522.33" y1="1905.3" x2="4767.27" y2="1660.36"/><line class="cls-2" x1="4694" y1="1474.04" x2="4432.31" y2="1212.35"/><path class="cls-2" d="M3621,1460.36h340.44S4304.12,1104.6,4290.71,1118V737.37l-347.37,347.37H3728.91L3315.76,671.59" transform="translate(4.02 1.12)"/><polyline class="cls-2" points="2772.19 975.79 3184.6 1388.21 3285.09 1287.72 3442.1 1287.72"/><polyline class="cls-2" points="2198.57 3056.71 2470.72 2784.56 2548.18 2862.02"/><polyline class="cls-2" points="2316.02 1457.5 2520.97 1662.45 2324.18 1859.24 2052.03 1587.09 1915.96 1723.15"/><polyline class="cls-2" points="2064.59 1729.44 2491.66 1302.37 2491.66 1045.35"/><line class="cls-2" x1="3793.8" y1="3299.55" x2="3994.78" y2="3098.58"/><polyline class="cls-2" points="2349.3 2671.51 2133.68 2887.14 1909.67 2885.04 1909.67 3110.33 1596.66 3423.34"/><path class="cls-2" d="M4049.5,2587.12" transform="translate(4.02 1.12)"/><line class="cls-2" x1="4571.3" y1="2820.76" x2="4813.67" y2="2820.76"/><line class="cls-2" x1="4794.02" y1="2974.7" x2="4220.84" y2="2974.7"/><line class="cls-2" x1="4257.07" y1="3416.2" x2="4027.3" y2="3186.43"/><polyline class="cls-2" points="3630.12 3304.6 3190.27 3304.6 3098.36 3396.51"/><polyline class="cls-2" points="3137.75 3232.39 2911.26 3005.89 2665.07 3005.89"/><polyline class="cls-2" points="2937.52 3130.63 2658.51 3130.63 2911.26 2877.88 2806.22 2877.88"/><polyline class="cls-2" points="2553.47 3048.57 2359.8 3048.57 2231.79 2920.55 2080.79 3071.54 2080.79 3229.1"/><line class="cls-2" x1="2845.61" y1="3409.64" x2="3106.56" y2="3148.68"/><polyline class="cls-2" points="2359.1 3244.3 2456.3 3147.11 2595.61 3147.11"/><polyline class="cls-2" points="2495.17 3412.78 2642.59 3265.36 2825.64 3265.36 2891.25 3199.76"/><polyline class="cls-2" points="2125.82 3198.95 2223.02 3101.75 2067.51 2946.23 2067.51 2418.13"/><polyline class="cls-2" points="2432.55 3418.25 2253.76 3239.46 2018.68 3239.46 1922.67 3335.47 1671.04 3083.84 1505.29 3249.59 1505.29 3417.7"/><polyline class="cls-2" points="1972.33 3020.93 1768.71 2817.31 1768.71 2607.07 2384.98 2607.07 2493.34 2715.43 2632.67 2715.43"/><polyline class="cls-2" points="1768.71 2607.07 1559.86 2398.21 1335.76 2398.21 1335.76 2640.02 1463.48 2767.74"/><polyline class="cls-2" points="1710.29 2814.63 1550.86 2655.2 1550.86 2293.33 1824.16 2293.33 2068.36 2537.53"/><polyline class="cls-2" points="4424.89 1486.84 4226.07 1288.03 4707.87 1288.03"/><polyline class="cls-2" points="4019.94 974.55 4019.94 681.81 4246.81 681.81"/><polyline class="cls-2" points="4205.34 981.87 4510.27 981.87 4749.13 743.01"/><line class="cls-2" x1="4510.27" y1="981.87" x2="4672.38" y2="1143.98"/><polyline class="cls-2" points="4380.93 939.47 4185.9 744.45 3875.16 744.45 3719.3 588.58"/><polyline class="cls-2" points="4281.51 709.68 3976.65 404.83 3635.93 404.83"/><polyline class="cls-2" points="3314.47 869.4 3627.12 869.4 3865.93 630.59 3865.93 337.55"/><polyline class="cls-2" points="3593.66 570.59 3432.15 409.08 3231.4 409.08"/><polyline class="cls-2" points="3622.07 517.4 3936.24 517.4 4108.28 345.36"/><polyline class="cls-2" points="3703.88 1228.92 3845.51 1370.55 4051.38 1370.55"/><polyline class="cls-2" points="3733.08 910.62 3486.33 663.86 3274.61 663.86"/><polyline class="cls-2" points="3327.18 1278.56 3559.33 1046.4 3559.33 796.73"/><line class="cls-2" x1="3747.68" y1="1275.64" x2="3930.19" y2="1093.13"/><line class="cls-2" x1="3625.03" y1="717.88" x2="3809.01" y2="901.86"/><line class="cls-2" x1="3397.26" y1="1202.63" x2="3182.63" y2="988"/><line class="cls-2" x1="2900.83" y1="1106.27" x2="3114" y2="893.09"/><polyline class="cls-2" points="3616.27 736.87 3249.79 736.87 3014.72 501.79 2801.19 288.27"/><polyline class="cls-2" points="3081.88 344.1 3303.82 566.03 3579.21 566.03"/><line class="cls-2" x1="4323.15" y1="783.96" x2="4634.11" y2="783.96"/><polyline class="cls-2" points="4035.89 591.46 4249.12 378.23 4249.12 61.35"/><polyline class="cls-2" points="3875.97 244.97 4305.38 244.97 4491.96 431.54"/><line class="cls-2" x1="4232.51" y1="591.03" x2="4412.52" y2="411.02"/><polyline class="cls-2" points="4242.82 456.75 4398.32 612.25 4363.87 646.71"/><line class="cls-2" x1="4518.43" y1="765.89" x2="4518.43" y2="432.55"/><line class="cls-2" x1="4375.51" y1="850.4" x2="4425.74" y2="800.17"/><line class="cls-2" x1="4526.2" y1="715.69" x2="4587.85" y2="654.04"/><line class="cls-2" x1="4080.97" y1="284.15" x2="3869.77" y2="72.95"/><polyline class="cls-2" points="3627.42 388.3 3838.62 599.5 4152.29 599.5"/><line class="cls-2" x1="3692.82" y1="313.83" x2="3536.41" y2="157.43"/><polyline class="cls-2" points="4294.73 1119.13 4005.75 1119.13 3877.33 1247.55 3877.33 1468.35"/><polyline class="cls-2" points="3105.01 364.36 3276.46 364.36 3276.46 111.7"/><polyline class="cls-2" points="3011.21 29.32 3011.21 341.39 3112.68 442.86"/><polyline class="cls-2" points="2875.75 336.56 2875.75 597.29 2624.51 848.53 2500.38 724.4"/><polyline class="cls-2" points="4431.91 578.35 4663.27 347 4663.27 6.78"/><line class="cls-2" x1="4777.97" y1="570.57" x2="4536.9" y2="329.5"/><polyline class="cls-2" points="3002.73 278.14 2678.34 278.14 2528.34 128.14 2528.34 41.55"/><line class="cls-2" x1="2846.63" y1="1065.94" x2="2483.22" y2="1065.94"/><polyline class="cls-2" points="2863.71 495.21 2573.46 495.21 2573.46 795.21"/><polyline class="cls-2" points="2234.6 2180.67 1830.3 2180.67 1576.86 2434.11"/><polyline class="cls-2" points="1757.89 2443.16 1519.53 2204.8 1633.09 2091.25 1672.87 2091.25 1735.48 2153.86"/><polyline class="cls-2" points="1600.99 3215.55 1459.19 3073.74 1590.43 2942.5 1766.94 2942.5"/><polyline class="cls-2" points="1767.34 3033.63 1564.9 2831.18 1357.7 2831.18"/><polyline class="cls-2" points="1522.43 3063.64 1366.05 2907.25 1366.05 2834.28"/><line class="cls-2" x1="2495.84" y1="2109.74" x2="2239.71" y2="1853.62"/><polyline class="cls-2" points="2718.47 123.18 2516.73 324.92 2516.73 502.92 2624.72 610.91 2873.19 610.91 2982.43 719.5 3062.62 719.5"/><line class="cls-2" x1="2780.88" y1="935.76" x2="2644.41" y2="799.29"/><polyline class="cls-2" points="2146.47 2235.17 1994.07 2082.77 1736.44 2082.77 1596.74 1943.07"/><polyline class="cls-2" points="1762.65 2033.79 1635.86 1907 1462.83 1907"/><polyline class="cls-2" points="2541.72 922.18 2319.38 699.84 2154.35 699.84 1977.78 523.28"/><polyline class="cls-2" points="2404.19 1231.62 2540.57 1095.23 2686.12 1240.79 2869.49 1240.79"/><polyline class="cls-2" points="2617.36 415.62 2437.43 235.68 2243.74 235.68 2243.74 38.08"/><polyline class="cls-2" points="2612.77 713.6 2459.2 560.02 2268.95 560.02 2169.07 460.14"/><polyline class="cls-2" points="2280.41 805.28 2416.8 668.9 2416.8 486.67"/><polyline class="cls-2" points="2269.27 1578.79 2039.8 1349.32 1706.03 1349.32 1516.8 1160.09 1516.8 844.28 1702.61 1030.08"/><polyline class="cls-2" points="1810.34 1590.71 2004.04 1397 2260.33 1397"/><polyline class="cls-2" points="2239.47 1963.22 1950.4 1963.22 1783.52 1796.33 1574.91 1796.33 1441.61 1663.03 1441.61 1484.29"/><polyline class="cls-2" points="1765.64 1319.52 1956.36 1128.79 2194.77 1128.79 2318.44 1005.12 2567.28 1005.12"/><polyline class="cls-2" points="2123.25 1233.1 1905.7 1015.55 1753.72 1015.55"/><polyline class="cls-2" points="2340.79 157.29 2340.79 333.11 2173.91 333.11 2050.23 456.79 1835.72 456.79 1692.66 313.73 1692.66 40.32"/><polyline class="cls-2" points="2272.25 1134.75 2272.25 941.05 2147.09 815.88"/><polyline class="cls-2" points="1500.9 3313.45 1206.54 3313.45 1088.79 3431.19"/><polyline class="cls-2" points="1255.6 2738.45 1457.73 2940.58 1131.96 2940.58 950.55 3121.99"/><polyline class="cls-2" points="1287.55 2663.5 1465.33 2663.5 1465.33 2441.28 1671.72 2647.67"/><polyline class="cls-2" points="2118.23 453.18 2118.23 190.44 1947.31 19.52"/><polyline class="cls-2" points="2087.15 574.65 1900.7 761.11 1900.7 998.42"/><polyline class="cls-2" points="1923.3 924.97 2205.81 924.97 2306.1 824.68"/><polyline class="cls-2" points="2005.22 783.71 1849.84 628.33 1671.86 628.33"/><polyline class="cls-2" points="1903.52 201.74 2040.54 64.72 2276.43 64.72"/><polyline class="cls-2" points="1313.07 3368.68 1313.07 3151.15 1166.17 3004.25"/><polyline class="cls-2" points="1250.92 3007.07 1092.72 3165.28 832.81 3165.28 832.81 3285.65 765.04 3353.42"/><polyline class="cls-2" points="1910.91 1613.52 1723.39 1426 1723.39 1202.76"/><polyline class="cls-2" points="1450.9 1405.32 1543.78 1498.19 1704.1 1498.19 1704.1 1703.27 1425.68 1981.68 1244.62 1981.68 1244.62 1819.95 1072.23 1647.56"/><polyline class="cls-2" points="1773.22 312.38 1532.08 553.53 1700.56 722.01 1700.56 894.6"/><polyline class="cls-2" points="1567.13 500.07 1345.24 278.18 1345.24 33.93"/><polyline class="cls-2" points="1528.82 49.89 1528.82 260.62 1375.57 107.36"/><line class="cls-2" x1="1167.41" y1="3008.49" x2="1167.41" y2="3234.65"/><polyline class="cls-2" points="1065.25 3054.81 959.84 2949.4 959.84 2785.96 1127.14 2785.96"/><polyline class="cls-2" points="1314.75 2548.06 1150.35 2548.06 1084.59 2613.82 1084.59 2774.36"/><polyline class="cls-2" points="1541.05 2134.16 1425 2018.11 1425 1855.64"/><polyline class="cls-2" points="2001.37 1853.71 2001.37 1747.33 1867.91 1747.33"/><polyline class="cls-2" points="1873.72 130.39 1873.72 269.65 1645.49 269.65"/><polyline class="cls-2" points="1394.05 290.92 1297.35 387.63 1297.35 542.36 1434.67 542.36 1556.52 420.51"/><polyline class="cls-2" points="1046.43 2882.26 857.75 2882.26 857.75 3016.72 712.45 3162.03"/><polyline class="cls-2" points="922.82 3355.05 922.82 3107.81 731.97 3107.81"/><polyline class="cls-2" points="1013.9 3307.34 1013.9 3125.16 1110.41 3028.65"/><polyline class="cls-2" points="1626.33 564.31 1475.41 715.22 1312.88 552.7"/><polyline class="cls-2" points="1474.12 259.89 1208.4 259.89 1087.15 381.14 1087.15 541.09 1229.04 541.09"/><polyline class="cls-2" points="1570.86 1429.82 1657.29 1343.4 1657.29 1147.34 1560.54 1050.6 1373.51 1050.6 1245.17 922.25 1425.11 922.25"/><polyline class="cls-2" points="1487.02 796.49 1311.6 796.49 1194.21 679.11 1332.23 679.11 1527.65 874.52"/><polyline class="cls-2" points="1326.94 2453.62 1139.65 2266.32 889.33 2266.32 889.33 2418.61"/><polyline class="cls-2" points="1015.37 2380.1 1015.37 2096.53 1211.41 2096.53 1377.71 2262.82 1596.51 2262.82"/><polyline class="cls-2" points="1403.96 1557.39 1176.41 1557.39 1031.12 1412.1"/><polyline class="cls-2" points="1382.96 1672.92 1165.9 1672.92 1025.87 1812.95 1025.87 1995"/><polyline class="cls-2" points="850.82 1900.47 1085.38 1900.47 1200.91 2016"/><polyline class="cls-2" points="1431.97 1277.32 1579.01 1130.28 1771.56 1130.28"/><polyline class="cls-2" points="1410.97 997.25 1410.97 1123.28 1279.68 1254.56"/><polyline class="cls-2" points="900.45 2762.66 900.45 2629.84 992.4 2629.84 992.4 2501.11 1115 2501.11 1156.15 2542.26"/><polyline class="cls-2" points="876.48 2484.51 728.58 2484.51 591.94 2347.87 591.94 2085.83"/><polyline class="cls-2" points="744.66 2082.62 892.56 2082.62 892.56 2201.58"/><polyline class="cls-2" points="802.53 2301.25 802.53 2211.22 506.74 2211.22"/><polyline class="cls-2" points="1423.06 1336.7 1214.07 1336.7 1214.07 1166.29"/><polyline class="cls-2" points="1091.9 182.45 1091.9 298.2 960.08 298.2"/><polyline class="cls-2" points="1162.63 790.12 1001.87 790.12 1001.87 921.94"/><polyline class="cls-2" points="1159.42 995.89 1159.42 1121.28 1030.81 1121.28 1030.81 989.46 898.99 989.46 898.99 825.49"/><polyline class="cls-2" points="1143.34 1333.48 982.58 1333.48 982.58 1494.24"/><path class="cls-2" d="M991.42,194.19H891.75V351.73h83.6V493.59s-127.47,18.9-119,18.9L965.7,621.81h160.76v147.9" transform="translate(4.02 1.12)"/><polyline class="cls-2" points="818.61 3005.37 677.14 3005.37 571.04 3111.47 571.04 2902.49 654.63 2818.89"/><polyline class="cls-2" points="818.61 2761.02 818.61 2629.2 686.79 2629.2 556.57 2498.98"/><polyline class="cls-2" points="599.98 2651.7 599.98 2770.66 419.93 2770.66"/><polyline class="cls-2" points="656.73 3265.76 492.25 3265.76 492.25 3097.71"/><polyline class="cls-2" points="477.95 2968.98 352.8 2968.98 352.8 3147.76 202.63 3147.76 104.3 3246.09"/><line class="cls-2" x1="199.05" y1="3197.82" x2="199.05" y2="3337.27"/><polyline class="cls-2" points="363.53 3208.55 363.53 3333.7 443.98 3253.25"/><polyline class="cls-2" points="481.52 2940.38 336.71 2795.57 184.75 2795.57 184.75 2607.85"/><polyline class="cls-2" points="206.2 3069.1 206.2 2936.8 84.63 2936.8"/><polyline class="cls-2" points="245.53 2625.72 420.74 2625.72 513.7 2532.76"/><polyline class="cls-2" points="547.62 2422.46 394.93 2422.46 394.93 2234.78 235.87 2234.78"/><polyline class="cls-2" points="286.77 2451.09 121.35 2451.09 121.35 2327.03"/><polyline class="cls-2" points="741.67 1932.57 741.67 1783.06 888 1783.06 962.75 1708.31"/><polyline class="cls-2" points="903.9 1407.69 735.3 1407.69 735.3 1293.17"/><polyline class="cls-2" points="926.17 717.39 728.94 717.39 728.94 564.7"/><polyline class="cls-2" points="598.52 338.84 725.76 338.84 725.76 186.15 827.56 186.15 895.95 117.75"/><polyline class="cls-2" points="859.37 383.38 743.26 499.49 582.61 499.49"/><polyline class="cls-2" points="487.18 2136.16 487.18 1999.38 399.7 1911.9 283.59 1911.9"/><polyline class="cls-2" points="369.48 2171.16 259.73 2061.41 259.73 1951.66"/><polyline class="cls-2" points="566.71 1840.32 671.68 1840.32 671.68 1722.62"/><polyline class="cls-2" points="748.03 1487.22 897.54 1487.22 897.54 1620.83"/><polyline class="cls-2" points="881.63 1175.47 992.97 1175.47 1077.27 1259.77"/><polyline class="cls-2" points="706.67 949.61 706.67 812.83 595.34 701.49 499.9 701.49"/><polyline class="cls-2" points="601.7 237.05 463.32 375.42 305.86 375.42 305.86 165.27 402.1 69.03 533.62 69.03"/><polyline class="cls-2" points="579.43 615.6 456.96 493.13 296.31 493.13"/><polyline class="cls-2" points="769.9 1661.06 633.72 1661.06 633.72 1516.19"/><polyline class="cls-2" points="538.1 1916.04 538.1 1776.96 361.36 1776.96"/><polyline class="cls-2" points="471.46 1704.52 471.46 1594.42 388.88 1511.84 259.95 1511.84"/><polyline class="cls-2" points="674.28 1301.78 742.38 1233.69 871.31 1233.69"/><polyline class="cls-2" points="745.76 950.61 821.24 950.61 821.24 1022.58"/><polyline class="cls-2" points="775.6 1091.04 875.65 1091.04 946.74 1019.95"/><polyline class="cls-2" points="343.09 1361.36 343.09 1195.53 187.85 1195.53 89.06 1096.73 89.06 1001.47"/><polyline class="cls-2" points="551.26 1043.81 551.26 863.87 388.96 863.87 279.58 754.49"/><polyline class="cls-2" points="237.25 1107.32 344.86 999.71 477.17 999.71"/></svg>