<svg id="Calque_1" data-name="Calque 1" xmlns="http://www.w3.org/2000/svg" viewBox="0 0 45.95 59.1"><defs><style>.cls-1{fill:none;stroke:#2b4b9b;stroke-miterlimit:10;stroke-width:2px;}</style></defs><path class="cls-1" d="M281.57,449.05a13.83,13.83,0,0,1-2.41-.88,6.32,6.32,0,0,1-3.37-5.82c0-7.24,0-14.48,0-21.73a6.54,6.54,0,0,1,6.78-6.7h30.2a6.52,6.52,0,0,1,6.85,5.54.59.59,0,0,0,.1.16v23.75a3.42,3.42,0,0,0-.13.34,6.16,6.16,0,0,1-2.76,4.17,18.76,18.76,0,0,1-2.8,1.17Zm14-13.22c0,.71,0,1.43,0,2.14a2.38,2.38,0,0,0,.1.75,2.14,2.14,0,0,0,2.39,1.51,2.12,2.12,0,0,0,1.87-2.12c.05-1.42,0-2.85,0-4.28a1.25,1.25,0,0,1,.54-1.16,4.31,4.31,0,0,0,.62-6.22,4.39,4.39,0,0,0-6.26-.45,4.21,4.21,0,0,0-.25,6.22,2.8,2.8,0,0,1,1,2.6A8.51,8.51,0,0,0,295.58,435.83Z" transform="translate(-274.77 -390.95)"/><path class="cls-1" d="M299.26,392c.94.18,1.9.31,2.83.56,5.35,1.48,8.56,5.09,10.15,10.28a26.85,26.85,0,0,1,.88,8.86h-6.56c0-.47,0-.94,0-1.42a19.45,19.45,0,0,0-.55-5.32c-1.36-5-4.64-6.67-9.28-6.33s-6.78,3.67-7.42,7.34a42,42,0,0,0-.32,4.77c0,.31,0,.62,0,1h-6.52c0-1.49-.08-2.94,0-4.38a17.92,17.92,0,0,1,2.88-9,14.12,14.12,0,0,1,10.33-6.18l.67-.13Z" transform="translate(-274.77 -390.95)"/><path class="cls-1" d="M295.58,435.83a8.51,8.51,0,0,1,0-1,2.8,2.8,0,0,0-1-2.6,4.21,4.21,0,0,1,.25-6.22,4.39,4.39,0,0,1,6.26.45,4.31,4.31,0,0,1-.62,6.22,1.25,1.25,0,0,0-.54,1.16c0,1.43,0,2.86,0,4.28a2.12,2.12,0,0,1-1.87,2.12,2.14,2.14,0,0,1-2.39-1.51,2.38,2.38,0,0,1-.1-.75C295.57,437.26,295.58,436.54,295.58,435.83Z" transform="translate(-274.77 -390.95)"/></svg>