<svg id="Calque_1" data-name="Calque 1" xmlns="http://www.w3.org/2000/svg" viewBox="0 0 45.95 59.1"><defs><style>.cls-1{fill:none;stroke:#0600ff;stroke-miterlimit:10;stroke-width:2px;}</style></defs><path class="cls-1" d="M138.86,243.39a15.68,15.68,0,0,1-2.41-.88,6.35,6.35,0,0,1-3.37-5.82q0-10.87,0-21.73a6.55,6.55,0,0,1,6.79-6.7h30.2a6.52,6.52,0,0,1,6.85,5.53.39.39,0,0,0,.1.16V237.7a2.92,2.92,0,0,0-.13.34,6.16,6.16,0,0,1-2.76,4.17,18.8,18.8,0,0,1-2.8,1.18Zm14-13.23c0,.72,0,1.43,0,2.15a2.28,2.28,0,0,0,.1.74,2.15,2.15,0,0,0,2.39,1.52,2.13,2.13,0,0,0,1.87-2.12c.05-1.43,0-2.86,0-4.29a1.23,1.23,0,0,1,.54-1.15,4.32,4.32,0,0,0,.62-6.23,4.4,4.4,0,0,0-6.26-.45,4.21,4.21,0,0,0-.25,6.22,2.82,2.82,0,0,1,1,2.61C152.84,229.49,152.86,229.83,152.86,230.16Z" transform="translate(-132.06 -185.28)"/><path class="cls-1" d="M156.55,186.28c.94.19,1.9.31,2.83.57,5.35,1.47,8.56,5.09,10.15,10.27a26.88,26.88,0,0,1,.88,8.87h-6.56c0-.47,0-1,0-1.42a19.41,19.41,0,0,0-.55-5.32c-1.37-5-4.64-6.68-9.28-6.34s-6.78,3.67-7.42,7.34a42,42,0,0,0-.32,4.77c0,.31,0,.63,0,1h-6.52c0-1.48-.08-2.94,0-4.38a17.91,17.91,0,0,1,2.88-9A14.16,14.16,0,0,1,153,186.41c.22,0,.45-.08.67-.13Z" transform="translate(-132.06 -185.28)"/><path class="cls-1" d="M152.86,230.16c0-.33,0-.67,0-1a2.82,2.82,0,0,0-1-2.61,4.21,4.21,0,0,1,.25-6.22,4.4,4.4,0,0,1,6.26.45,4.32,4.32,0,0,1-.62,6.23,1.23,1.23,0,0,0-.54,1.15c0,1.43,0,2.86,0,4.29a2.13,2.13,0,0,1-1.87,2.12,2.15,2.15,0,0,1-2.39-1.52,2.28,2.28,0,0,1-.1-.74C152.86,231.59,152.86,230.88,152.86,230.16Z" transform="translate(-132.06 -185.28)"/></svg>