<svg id="Calque_1" data-name="Calque 1" xmlns="http://www.w3.org/2000/svg" viewBox="0 0 45.95 66.31"><defs><style>.cls-1{fill:#fff;stroke:#2b4b9b;stroke-miterlimit:10;stroke-width:2px;}</style></defs><path class="cls-1" d="M302.73,442a15.4,15.4,0,0,1-2.41-.88,6.36,6.36,0,0,1-3.36-5.82q0-10.86,0-21.73a6.55,6.55,0,0,1,6.79-6.7h30.19a6.54,6.54,0,0,1,6.86,5.54.6.6,0,0,0,.09.15v23.75a2.79,2.79,0,0,0-.12.34,6.13,6.13,0,0,1-2.77,4.17,17.8,17.8,0,0,1-2.8,1.18Zm14-13.22c0,.71,0,1.43,0,2.14a3.15,3.15,0,0,0,.1.75,2.19,2.19,0,0,0,4.27-.61c0-1.43,0-2.86,0-4.29a1.23,1.23,0,0,1,.53-1.15,4.3,4.3,0,0,0,.63-6.22,4.4,4.4,0,0,0-6.27-.45,4.21,4.21,0,0,0-.25,6.21,2.79,2.79,0,0,1,1,2.61C316.71,428.05,316.74,428.39,316.74,428.73Z" transform="translate(-295.94 -376.64)"/><path class="cls-1" d="M320.53,377.64c1,.18,1.91.31,2.83.56,5.35,1.48,8.57,5.09,10.16,10.28a26.85,26.85,0,0,1,.88,8.86h-6.57v-1.42a19.44,19.44,0,0,0-.54-5.32c-1.37-5-4.65-6.67-9.28-6.33s-6.78,3.67-7.42,7.34a44.42,44.42,0,0,0-.33,4.77c0,.31,0,.62,0,1h-6.53c0-1.49-.07-2.94,0-4.38a17.85,17.85,0,0,1,2.88-9A14.1,14.1,0,0,1,317,377.77l.68-.13Z" transform="translate(-295.94 -376.64)"/><path class="cls-1" d="M316.74,428.73c0-.34,0-.68,0-1a2.79,2.79,0,0,0-1-2.61,4.21,4.21,0,0,1,.25-6.21,4.4,4.4,0,0,1,6.27.45,4.3,4.3,0,0,1-.63,6.22,1.23,1.23,0,0,0-.53,1.15c0,1.43,0,2.86,0,4.29a2.19,2.19,0,0,1-4.27.61,3.15,3.15,0,0,1-.1-.75C316.73,430.16,316.74,429.44,316.74,428.73Z" transform="translate(-295.94 -376.64)"/></svg>