<?xml version="1.0" encoding="iso-8859-1"?>
<!-- Generator: Adobe Illustrator 19.0.0, SVG Export Plug-In . SVG Version: 6.00 Build 0)  -->
<svg version="1.1" id="Layer_1" xmlns="http://www.w3.org/2000/svg" xmlns:xlink="http://www.w3.org/1999/xlink" x="0px" y="0px"
	 viewBox="0 0 512.001 512.001" style="enable-background:new 0 0 512.001 512.001;" xml:space="preserve">
<circle style="fill:#FF8C78;" cx="256.001" cy="260.348" r="173.928"/>
<path style="fill:#DB6B5E;" d="M300.208,382.098c-96.058,0-173.928-77.87-173.928-173.928c0-30.511,7.866-59.181,21.666-84.11
	c-40.132,31.861-65.873,81.067-65.873,136.289c0,96.058,77.87,173.928,173.928,173.928c65.547,0,122.615-36.264,152.262-89.817
	C378.586,368.018,341.043,382.098,300.208,382.098z"/>
<g>
	<path style="fill:#ECEEF1;" d="M339.98,274.757c13.585-13.585,13.585-35.61,0-49.194l-49.194,49.194
		C304.371,288.342,326.396,288.342,339.98,274.757z"/>
	<path style="fill:#ECEEF1;" d="M172.021,274.757c-13.585-13.585-13.585-35.61,0-49.194l49.194,49.194
		C207.63,288.342,185.605,288.342,172.021,274.757z"/>
</g>
<g>
	<circle style="fill:#DB6B5E;" cx="256.001" cy="25.546" r="17.393"/>
	<circle style="fill:#DB6B5E;" cx="429.928" cy="51.635" r="17.393"/>
	<circle style="fill:#DB6B5E;" cx="29.894" cy="390.794" r="17.393"/>
	<circle style="fill:#DB6B5E;" cx="47.287" cy="60.331" r="17.393"/>
	<circle style="fill:#DB6B5E;" cx="482.107" cy="173.384" r="17.393"/>
	<circle style="fill:#DB6B5E;" cx="482.107" cy="434.276" r="17.393"/>
	<circle style="fill:#DB6B5E;" cx="342.964" cy="486.454" r="17.393"/>
	<circle style="fill:#DB6B5E;" cx="116.858" cy="486.454" r="17.393"/>
</g>
<circle style="fill:#FFD6C4;" cx="321.223" cy="169.036" r="30.437"/>
<path d="M334.216,219.798l-49.194,49.194c-3.184,3.184-3.184,8.346,0,11.529c8.371,8.371,19.366,12.557,30.362,12.557
	s21.991-4.185,30.362-12.557c16.742-16.742,16.742-43.982,0-60.724C342.561,216.614,337.399,216.614,334.216,219.798z
	 M334.216,268.992c-8.375,8.375-20.983,9.995-30.997,4.862l35.86-35.86C344.21,248.008,342.589,260.618,334.216,268.992z"/>
<path d="M166.256,219.798c-16.742,16.742-16.742,43.982,0,60.724c8.371,8.371,19.366,12.557,30.362,12.557
	c10.997,0,21.991-4.185,30.362-12.557c3.184-3.184,3.184-8.346,0-11.529l-49.194-49.194
	C174.602,216.614,169.44,216.614,166.256,219.798z M177.785,268.992c-8.375-8.375-9.995-20.983-4.862-30.997l35.86,35.86
	C198.77,278.988,186.16,277.366,177.785,268.992z"/>
<path d="M490.05,410.001c0.133-0.584,0.21-1.189,0.21-1.814v-60.875c0-4.503-3.65-8.153-8.153-8.153h-61.98
	c10.39-21.55,16.647-45.447,17.763-70.658h44.217c4.503,0,8.153-3.65,8.153-8.153v-62.76c10.099-3.411,17.393-12.968,17.393-24.204
	c0-14.086-11.46-25.546-25.546-25.546c-14.086,0-25.546,11.46-25.546,25.546c0,11.236,7.294,20.793,17.393,24.204v54.607h-36.06
	c-0.674-15.261-3.233-30.309-7.647-44.842c-1.31-4.309-5.865-6.739-10.17-5.432c-4.308,1.309-6.74,5.862-5.432,10.17
	c4.732,15.577,7.131,31.812,7.131,48.256c0,91.409-74.366,165.775-165.775,165.775S90.226,351.757,90.226,260.348
	S164.592,94.573,256.001,94.573c36.293,0,70.798,11.749,98.984,32.755c0.347,0.304,0.72,0.578,1.115,0.822
	c14.973,11.355,28.123,25.345,38.752,41.6c2.464,3.769,7.517,4.824,11.286,2.362c3.769-2.464,4.825-7.517,2.362-11.286
	c-7.568-11.574-16.307-22.094-25.993-31.467h47.421c4.503,0,8.153-3.65,8.153-8.153V75.839
	c10.099-3.411,17.393-12.968,17.393-24.204c0-14.086-11.46-25.546-25.546-25.546c-14.086,0-25.546,11.46-25.546,25.546
	c0,11.236,7.294,20.793,17.393,24.204v37.214h-58.669c-28.52-20.769-62.774-32.982-98.953-34.583V49.75
	c10.099-3.411,17.393-12.968,17.393-24.204C281.546,11.46,270.087,0,256.001,0c-14.086,0-25.546,11.46-25.546,25.546
	c0,11.236,7.294,20.793,17.393,24.204v28.71c-54.649,2.421-103.115,29.035-134.911,69.38H55.44V84.535
	c10.099-3.411,17.393-12.968,17.393-24.204c0-14.086-11.46-25.546-25.546-25.546s-25.546,11.46-25.546,25.546
	c0,11.236,7.294,20.793,17.393,24.204v71.456c0,4.503,3.65,8.153,8.153,8.153h54.193c-17.454,27.933-27.56,60.908-27.56,96.204
	c0,15.177,1.878,29.921,5.394,44.025H29.894c-4.503,0-8.153,3.65-8.153,8.153v54.063c-10.099,3.411-17.393,12.969-17.393,24.204
	c0,14.086,11.46,25.546,25.546,25.546s25.546-11.46,25.546-25.546c0-11.236-7.294-20.793-17.393-24.204v-45.91h46.159
	c18.296,51.945,59.518,93.167,111.463,111.463v46.159h-54.607c-3.411-10.099-12.968-17.393-24.204-17.393
	c-14.086,0-25.546,11.46-25.546,25.546S102.772,512,116.858,512c11.236,0,20.793-7.294,24.204-17.393h62.76
	c4.503,0,8.153-3.65,8.153-8.153v-49.419c14.104,3.516,28.848,5.394,44.025,5.394c28.214,0,54.95-6.452,78.811-17.955v37.777
	c-10.099,3.411-17.393,12.968-17.393,24.204c0,14.086,11.46,25.546,25.546,25.546c14.086,0,25.546-11.46,25.546-25.546
	c0-11.236-7.294-20.793-17.393-24.204v-46.455c0-0.082-0.01-0.16-0.012-0.241c24.487-15.06,45.157-35.747,60.194-60.25
	c0.517,0.103,1.051,0.159,1.598,0.159h61.056v52.722c0,0.625,0.077,1.231,0.21,1.814c-10.207,3.35-17.603,12.963-17.603,24.276
	c0,14.086,11.46,25.546,25.546,25.546c14.086,0,25.546-11.46,25.546-25.546C507.652,422.963,500.257,413.35,490.05,410.001z
	 M482.107,164.144c5.095,0,9.24,4.145,9.24,9.24c0,5.095-4.145,9.24-9.24,9.24c-5.095,0-9.24-4.145-9.24-9.24
	C472.867,168.289,477.012,164.144,482.107,164.144z M429.928,42.395c5.095,0,9.24,4.145,9.24,9.24s-4.145,9.24-9.24,9.24
	c-5.095,0-9.24-4.145-9.24-9.24S424.833,42.395,429.928,42.395z M256.001,16.306c5.095,0,9.24,4.145,9.24,9.24
	s-4.145,9.24-9.24,9.24s-9.24-4.145-9.24-9.24S250.906,16.306,256.001,16.306z M47.287,51.091c5.095,0,9.24,4.145,9.24,9.24
	c0,5.095-4.145,9.24-9.24,9.24s-9.24-4.145-9.24-9.24C38.047,55.236,42.192,51.091,47.287,51.091z M29.894,400.034
	c-5.095,0-9.24-4.145-9.24-9.24c0-5.095,4.145-9.24,9.24-9.24s9.24,4.145,9.24,9.24C39.134,395.889,34.989,400.034,29.894,400.034z
	 M116.858,495.694c-5.095,0-9.24-4.145-9.24-9.24s4.145-9.24,9.24-9.24s9.24,4.145,9.24,9.24S121.953,495.694,116.858,495.694z
	 M342.964,495.694c-5.095,0-9.24-4.145-9.24-9.24s4.145-9.24,9.24-9.24c5.095,0,9.24,4.145,9.24,9.24
	S348.059,495.694,342.964,495.694z M482.107,443.516c-5.095,0-9.24-4.145-9.24-9.24s4.145-9.24,9.24-9.24
	c5.095,0,9.24,4.145,9.24,9.24S487.202,443.516,482.107,443.516z"/>
<g>
</g>
<g>
</g>
<g>
</g>
<g>
</g>
<g>
</g>
<g>
</g>
<g>
</g>
<g>
</g>
<g>
</g>
<g>
</g>
<g>
</g>
<g>
</g>
<g>
</g>
<g>
</g>
<g>
</g>
</svg>
